<svg width="33" height="32" viewBox="0 0 33 32" fill="none" xmlns="http://www.w3.org/2000/svg">
<path d="M14.2188 4.875C13.8955 4.875 13.5855 5.0034 13.357 5.23196C13.1284 5.46052 13 5.77052 13 6.09375C13 6.41698 13.1284 6.72698 13.357 6.95554C13.5855 7.1841 13.8955 7.3125 14.2188 7.3125H18.2812C18.6045 7.3125 18.9145 7.1841 19.143 6.95554C19.3716 6.72698 19.5 6.41698 19.5 6.09375C19.5 5.77052 19.3716 5.46052 19.143 5.23196C18.9145 5.0034 18.6045 4.875 18.2812 4.875H14.2188Z" fill="#111C26"/>
<path d="M3.25 6.09375C3.25 4.47759 3.89202 2.92762 5.03482 1.78482C6.17762 0.642018 7.72759 0 9.34375 0H23.1562C24.7724 0 26.3224 0.642018 27.4652 1.78482C28.608 2.92762 29.25 4.47759 29.25 6.09375V12.1875H31.2439C31.5671 12.1875 31.8771 12.3159 32.1057 12.5445C32.3342 12.773 32.4626 13.083 32.4626 13.4062C32.4626 13.7295 32.3342 14.0395 32.1057 14.268C31.8771 14.4966 31.5671 14.625 31.2439 14.625H29.25V28.8438C29.25 29.598 28.9504 30.3213 28.4171 30.8546C27.8838 31.3879 27.1605 31.6875 26.4062 31.6875H23.9688C23.2145 31.6875 22.4912 31.3879 21.9579 30.8546C21.4246 30.3213 21.125 29.598 21.125 28.8438V26.8125H11.375V28.8438C11.375 29.598 11.0754 30.3213 10.5421 30.8546C10.0088 31.3879 9.28546 31.6875 8.53125 31.6875H6.09375C5.33954 31.6875 4.61622 31.3879 4.08292 30.8546C3.54961 30.3213 3.25 29.598 3.25 28.8438V14.625H1.21875C0.895517 14.625 0.585523 14.4966 0.356963 14.268C0.128403 14.0395 0 13.7295 0 13.4062C0 13.083 0.128403 12.773 0.356963 12.5445C0.585523 12.3159 0.895517 12.1875 1.21875 12.1875H3.25V6.09375ZM23.5625 26.8125V28.8438C23.5625 29.068 23.7445 29.25 23.9688 29.25H26.4062C26.514 29.25 26.6173 29.2072 26.6935 29.131C26.7697 29.0548 26.8125 28.9515 26.8125 28.8438V26.8125H23.5625ZM5.6875 26.8125V28.8438C5.6875 29.068 5.8695 29.25 6.09375 29.25H8.53125C8.63899 29.25 8.74233 29.2072 8.81851 29.131C8.8947 29.0548 8.9375 28.9515 8.9375 28.8438V26.8125H5.6875ZM9.34375 2.4375C8.37405 2.4375 7.44407 2.82271 6.75839 3.50839C6.07271 4.19407 5.6875 5.12405 5.6875 6.09375V16.25H26.8125V6.09375C26.8125 5.12405 26.4273 4.19407 25.7416 3.50839C25.0559 2.82271 24.1259 2.4375 23.1562 2.4375H9.34375ZM11.375 21.125C11.375 20.694 11.2038 20.2807 10.899 19.976C10.5943 19.6712 10.181 19.5 9.75 19.5C9.31902 19.5 8.9057 19.6712 8.60095 19.976C8.29621 20.2807 8.125 20.694 8.125 21.125C8.125 21.556 8.29621 21.9693 8.60095 22.274C8.9057 22.5788 9.31902 22.75 9.75 22.75C10.181 22.75 10.5943 22.5788 10.899 22.274C11.2038 21.9693 11.375 21.556 11.375 21.125ZM22.75 22.75C23.181 22.75 23.5943 22.5788 23.899 22.274C24.2038 21.9693 24.375 21.556 24.375 21.125C24.375 20.694 24.2038 20.2807 23.899 19.976C23.5943 19.6712 23.181 19.5 22.75 19.5C22.319 19.5 21.9057 19.6712 21.601 19.976C21.2962 20.2807 21.125 20.694 21.125 21.125C21.125 21.556 21.2962 21.9693 21.601 22.274C21.9057 22.5788 22.319 22.75 22.75 22.75Z" fill="#111C26"/>
</svg>
