<svg width="20" height="20" viewBox="0 0 20 20" fill="none" xmlns="http://www.w3.org/2000/svg">
<path d="M14.01 13.5703C12.74 13.5703 11.61 14.3703 11.19 15.5703H5.82996C5.56498 14.8219 5.01412 14.209 4.29809 13.866C3.58206 13.523 2.75925 13.4778 2.00996 13.7403C1.63754 13.8708 1.2945 14.0734 1.00043 14.3366C0.706367 14.5997 0.467052 14.9183 0.296168 15.274C0.125283 15.6297 0.0261806 16.0156 0.00452525 16.4096C-0.0171301 16.8036 0.0390866 17.198 0.169962 17.5703C0.438528 18.3207 0.993102 18.9343 1.71258 19.2772C2.43205 19.6201 3.25797 19.6643 4.00996 19.4003C4.85996 19.1003 5.50996 18.4203 5.82996 17.5703H11.2C11.75 19.1303 13.47 19.9503 15.01 19.4003C15.3835 19.2712 15.7279 19.0695 16.0232 18.8068C16.3186 18.5442 16.5591 18.2257 16.731 17.8698C16.9029 17.5139 17.0028 17.1276 17.025 16.7329C17.0471 16.3383 16.991 15.9432 16.86 15.5703C16.43 14.3703 15.29 13.5703 14.01 13.5703ZM14.01 18.0703C13.6121 18.0703 13.2306 17.9123 12.9493 17.631C12.668 17.3497 12.51 16.9681 12.51 16.5703C12.51 16.1725 12.668 15.791 12.9493 15.5097C13.2306 15.2283 13.6121 15.0703 14.01 15.0703C14.4078 15.0703 14.7893 15.2283 15.0706 15.5097C15.3519 15.791 15.51 16.1725 15.51 16.5703C15.51 16.9681 15.3519 17.3497 15.0706 17.631C14.7893 17.9123 14.4078 18.0703 14.01 18.0703Z" fill="#111C26"/>
<path d="M17.7549 9.04066L17.0329 9.75474C16.5007 10.2766 15.8104 10.9481 14.9613 11.7692C14.7061 12.016 14.365 12.1539 14.01 12.1539C13.655 12.1539 13.3139 12.016 13.0587 11.7692L10.9353 9.70365C10.6683 9.44149 10.4451 9.2207 10.265 9.04066C9.52439 8.29999 9.02004 7.35634 8.81572 6.32903C8.61141 5.30172 8.71631 4.2369 9.11716 3.26921C9.51801 2.30151 10.1968 1.47442 11.0677 0.892506C11.9386 0.310594 12.9625 0 14.01 0C15.0574 0 16.0813 0.310594 16.9522 0.892506C17.8231 1.47442 18.5019 2.30151 18.9028 3.26921C19.3036 4.2369 19.4085 5.30172 19.2042 6.32903C18.9999 7.35634 18.4955 8.29999 17.7549 9.04066V9.04066ZM15.5306 5.46297C15.5306 5.05968 15.3704 4.67291 15.0852 4.38774C14.8 4.10257 14.4133 3.94236 14.01 3.94236C13.6067 3.94236 13.2199 4.10257 12.9347 4.38774C12.6496 4.67291 12.4894 5.05968 12.4894 5.46297C12.4894 5.86626 12.6496 6.25304 12.9347 6.53821C13.2199 6.82337 13.6067 6.98358 14.01 6.98358C14.4133 6.98358 14.8 6.82337 15.0852 6.53821C15.3704 6.25304 15.5306 5.86626 15.5306 5.46297V5.46297Z" fill="#111C26"/>
</svg>
