<svg width="24" height="21" viewBox="0 0 24 21" fill="none" xmlns="http://www.w3.org/2000/svg">
<path d="M22.8743 4.30353C22.5106 3.46138 21.9861 2.69823 21.3303 2.05681C20.674 1.41347 19.9003 0.902212 19.0511 0.550847C18.1705 0.185057 17.226 -0.0021756 16.2725 1.90724e-05C14.9348 1.90724e-05 13.6296 0.366333 12.4954 1.05826C12.224 1.22378 11.9663 1.40558 11.7221 1.60366C11.4778 1.40558 11.2201 1.22378 10.9487 1.05826C9.81451 0.366333 8.50934 1.90724e-05 7.17162 1.90724e-05C6.20835 1.90724e-05 5.27492 0.184533 4.39306 0.550847C3.54104 0.903594 2.77313 1.41101 2.11377 2.05681C1.45711 2.69751 0.932549 3.46084 0.569822 4.30353C0.192654 5.17997 0 6.11068 0 7.06853C0 7.9721 0.184514 8.91366 0.550828 9.87151C0.857447 10.672 1.29702 11.5023 1.85871 12.3407C2.74871 13.6676 3.97247 15.0515 5.492 16.4543C8.01007 18.7797 10.5037 20.3861 10.6095 20.4512L11.2526 20.8637C11.5375 21.0455 11.9039 21.0455 12.1888 20.8637L12.8319 20.4512C12.9377 20.3834 15.4286 18.7797 17.9494 16.4543C19.4689 15.0515 20.6927 13.6676 21.5827 12.3407C22.1444 11.5023 22.5867 10.672 22.8906 9.87151C23.2569 8.91366 23.4414 7.9721 23.4414 7.06853C23.4441 6.11068 23.2515 5.17997 22.8743 4.30353ZM11.7221 18.7173C11.7221 18.7173 2.06221 12.528 2.06221 7.06853C2.06221 4.30353 4.34964 2.06223 7.17162 2.06223C9.15514 2.06223 10.8755 3.16932 11.7221 4.78652C12.5686 3.16932 14.289 2.06223 16.2725 2.06223C19.0945 2.06223 21.3819 4.30353 21.3819 7.06853C21.3819 12.528 11.7221 18.7173 11.7221 18.7173Z" fill="black"/>
</svg>
