<svg width="21" height="21" viewBox="0 0 21 21" fill="none" xmlns="http://www.w3.org/2000/svg">
<path fill-rule="evenodd" clip-rule="evenodd" d="M20.5 10.5C20.5 13.1522 19.4464 15.6957 17.5711 17.5711C15.6957 19.4464 13.1522 20.5 10.5 20.5C7.84785 20.5 5.30431 19.4464 3.42895 17.5711C1.55358 15.6957 0.500015 13.1522 0.500015 10.5C0.500015 7.84784 1.55358 5.3043 3.42895 3.42893C5.30431 1.55357 7.84785 0.5 10.5 0.5C13.1522 0.5 15.6957 1.55357 17.5711 3.42893C19.4464 5.3043 20.5 7.84784 20.5 10.5ZM11.75 5.5C11.75 5.83152 11.6183 6.14946 11.3839 6.38388C11.1495 6.6183 10.8315 6.75 10.5 6.75C10.1685 6.75 9.85055 6.6183 9.61613 6.38388C9.38171 6.14946 9.25002 5.83152 9.25002 5.5C9.25002 5.16848 9.38171 4.85054 9.61613 4.61612C9.85055 4.3817 10.1685 4.25 10.5 4.25C10.8315 4.25 11.1495 4.3817 11.3839 4.61612C11.6183 4.85054 11.75 5.16848 11.75 5.5ZM9.25002 9.25C8.91849 9.25 8.60055 9.3817 8.36613 9.61612C8.13171 9.85054 8.00002 10.1685 8.00002 10.5C8.00002 10.8315 8.13171 11.1495 8.36613 11.3839C8.60055 11.6183 8.91849 11.75 9.25002 11.75V15.5C9.25002 15.8315 9.38171 16.1495 9.61613 16.3839C9.85055 16.6183 10.1685 16.75 10.5 16.75H11.75C12.0815 16.75 12.3995 16.6183 12.6339 16.3839C12.8683 16.1495 13 15.8315 13 15.5C13 15.1685 12.8683 14.8505 12.6339 14.6161C12.3995 14.3817 12.0815 14.25 11.75 14.25V10.5C11.75 10.1685 11.6183 9.85054 11.3839 9.61612C11.1495 9.3817 10.8315 9.25 10.5 9.25H9.25002Z" fill="#111C26"/>
</svg>
