<svg width="36" height="36" viewBox="0 0 36 36" fill="none" xmlns="http://www.w3.org/2000/svg">
<g filter="url(#filter0_d_9_944)">
<circle cx="15" cy="15" r="13" fill="#111C26"/>
</g>
<path d="M15 2C7.83187 2 2 7.8325 2 15C2 22.1787 7.82125 28 15 28C22.1681 28 28 22.1681 28 15C28 7.82062 22.1794 2 15 2ZM15 21.5625C13.4419 21.5625 11.9475 20.9435 10.8457 19.8418C9.74397 18.74 9.125 17.2456 9.125 15.6875C9.125 14.1294 9.74397 12.635 10.8457 11.5332C11.9475 10.4315 13.4419 9.8125 15 9.8125H15.2631L14.3813 8.93125C14.2171 8.76715 14.125 8.54458 14.125 8.3125C14.125 8.08042 14.2171 7.85785 14.3813 7.69375C14.5454 7.52965 14.7679 7.43746 15 7.43746C15.2321 7.43746 15.4546 7.52965 15.6187 7.69375L18.1187 10.1938C18.2 10.275 18.2645 10.3715 18.3084 10.4776C18.3524 10.5838 18.3751 10.6976 18.3751 10.8125C18.3751 10.9274 18.3524 11.0412 18.3084 11.1474C18.2645 11.2535 18.2 11.35 18.1187 11.4312L15.6187 13.9312C15.4546 14.0954 15.2321 14.1875 15 14.1875C14.7679 14.1875 14.5454 14.0954 14.3813 13.9312C14.2171 13.7671 14.125 13.5446 14.125 13.3125C14.125 13.0804 14.2171 12.8579 14.3813 12.6938L15.5063 11.5688C15.3575 11.5625 15.1875 11.5625 15 11.5625C14.1842 11.5625 13.3866 11.8044 12.7083 12.2577C12.0299 12.7109 11.5012 13.3552 11.189 14.1089C10.8768 14.8627 10.7951 15.6921 10.9543 16.4922C11.1134 17.2924 11.5063 18.0274 12.0832 18.6043C12.6601 19.1812 13.3951 19.5741 14.1953 19.7332C14.9954 19.8924 15.8248 19.8107 16.5786 19.4985C17.3323 19.1863 17.9766 18.6576 18.4298 17.9792C18.8831 17.3009 19.125 16.5033 19.125 15.6875C19.125 15.4554 19.2172 15.2329 19.3813 15.0688C19.5454 14.9047 19.7679 14.8125 20 14.8125C20.2321 14.8125 20.4546 14.9047 20.6187 15.0688C20.7828 15.2329 20.875 15.4554 20.875 15.6875C20.8732 17.2451 20.2536 18.7384 19.1522 19.8397C18.0509 20.9411 16.5576 21.5607 15 21.5625Z" fill="#FFDD00"/>
<defs>
<filter id="filter0_d_9_944" x="0" y="0" width="36" height="36" filterUnits="userSpaceOnUse" color-interpolation-filters="sRGB">
<feFlood flood-opacity="0" result="BackgroundImageFix"/>
<feColorMatrix in="SourceAlpha" type="matrix" values="0 0 0 0 0 0 0 0 0 0 0 0 0 0 0 0 0 0 127 0" result="hardAlpha"/>
<feMorphology radius="1" operator="erode" in="SourceAlpha" result="effect1_dropShadow_9_944"/>
<feOffset dx="3" dy="3"/>
<feGaussianBlur stdDeviation="3"/>
<feComposite in2="hardAlpha" operator="out"/>
<feColorMatrix type="matrix" values="0 0 0 0 0.831373 0 0 0 0 0.729412 0 0 0 0 0.0627451 0 0 0 0.3 0"/>
<feBlend mode="normal" in2="BackgroundImageFix" result="effect1_dropShadow_9_944"/>
<feBlend mode="normal" in="SourceGraphic" in2="effect1_dropShadow_9_944" result="shape"/>
</filter>
</defs>
</svg>
