<svg width="18" height="20" viewBox="0 0 18 20" fill="none" xmlns="http://www.w3.org/2000/svg">
<path d="M15.157 14.8821L13.97 16.0561C13.095 16.9141 11.96 18.0181 10.564 19.3681C10.1444 19.7738 9.5836 20.0006 8.99997 20.0006C8.41634 20.0006 7.85555 19.7738 7.43597 19.3681L3.94497 15.9721C3.50597 15.5411 3.13897 15.1781 2.84297 14.8821C1.62534 13.6644 0.79614 12.113 0.460229 10.424C0.124319 8.735 0.296783 6.98435 0.955813 5.39339C1.61484 3.80243 2.73084 2.44262 4.16269 1.48591C5.59453 0.529195 7.27792 0.0185547 8.99997 0.0185547C10.722 0.0185547 12.4054 0.529195 13.8373 1.48591C15.2691 2.44262 16.3851 3.80243 17.0441 5.39339C17.7032 6.98435 17.8756 8.735 17.5397 10.424C17.2038 12.113 16.3746 13.6644 15.157 14.8821ZM11.5 9.00011C11.5 8.33707 11.2366 7.70119 10.7677 7.23235C10.2989 6.7635 9.66301 6.50011 8.99997 6.50011C8.33693 6.50011 7.70105 6.7635 7.23221 7.23235C6.76336 7.70119 6.49997 8.33707 6.49997 9.00011C6.49997 9.66315 6.76336 10.299 7.23221 10.7679C7.70105 11.2367 8.33693 11.5001 8.99997 11.5001C9.66301 11.5001 10.2989 11.2367 10.7677 10.7679C11.2366 10.299 11.5 9.66315 11.5 9.00011Z" fill="#111C26"/>
</svg>
