<svg width="23" height="23" viewBox="0 0 23 23" fill="none" xmlns="http://www.w3.org/2000/svg">
<path d="M10.7812 4.3125C10.7812 3.74388 10.9499 3.18803 11.2658 2.71524C11.5817 2.24245 12.0307 1.87395 12.556 1.65635C13.0814 1.43875 13.6594 1.38181 14.2171 1.49274C14.7748 1.60368 15.2871 1.87749 15.6892 2.27957C16.0913 2.68165 16.3651 3.19392 16.476 3.75162C16.5869 4.30931 16.53 4.88738 16.3124 5.41272C16.0948 5.93805 15.7263 6.38707 15.2535 6.70298C14.7807 7.01889 14.2249 7.1875 13.6562 7.1875C12.894 7.18662 12.1633 6.88344 11.6243 6.34446C11.0853 5.80549 10.7821 5.07473 10.7812 4.3125ZM18.6875 12.2188C16.1273 12.2188 14.9455 10.9493 13.6941 9.60493C13.3773 9.2646 13.0496 8.91259 12.7064 8.59571C9.36234 5.50742 4.02967 10.7664 3.80425 10.9918C3.67077 11.1268 3.59613 11.3091 3.59665 11.499C3.59717 11.6889 3.67279 11.8708 3.80701 12.0051C3.94123 12.1394 4.12313 12.2152 4.313 12.2158C4.50287 12.2164 4.68527 12.1419 4.82038 12.0085C5.65162 11.2106 6.57302 10.5124 7.56592 9.92783C8.85266 9.19515 9.92647 8.93182 10.7747 9.13747L9.1849 12.7939L9.18275 12.7989L5.80956 20.5572C5.77194 20.6438 5.75173 20.7369 5.7501 20.8313C5.74846 20.9257 5.76543 21.0195 5.80004 21.1073C5.83464 21.1951 5.88621 21.2752 5.95179 21.3431C6.01736 21.411 6.09567 21.4653 6.18223 21.5029C6.35706 21.5789 6.55491 21.5823 6.73227 21.5125C6.90962 21.4426 7.05194 21.3051 7.12793 21.1303L10.1461 14.1885L12.9375 16.1824V20.8438C12.9375 21.0344 13.0132 21.2172 13.148 21.352C13.2828 21.4868 13.4656 21.5625 13.6562 21.5625C13.8469 21.5625 14.0297 21.4868 14.1645 21.352C14.2993 21.2172 14.375 21.0344 14.375 20.8438V15.8125C14.375 15.6981 14.3477 15.5853 14.2953 15.4836C14.243 15.3819 14.1671 15.2941 14.074 15.2276L10.7321 12.8405L12.0038 9.91552C12.2139 10.1256 12.4237 10.35 12.6419 10.5845C13.916 11.953 15.5016 13.6563 18.6875 13.6563C18.8781 13.6563 19.0609 13.5805 19.1957 13.4457C19.3305 13.3109 19.4062 13.1281 19.4062 12.9375C19.4062 12.7469 19.3305 12.5641 19.1957 12.4293C19.0609 12.2945 18.8781 12.2188 18.6875 12.2188Z" fill="#111C26"/>
</svg>
